<svg id="Warstwa_2" data-name="Warstwa 2" xmlns="http://www.w3.org/2000/svg" viewBox="0 0 554.84 996.69"><defs><style>.cls-1{fill:#666;}</style></defs><title>attach</title><path class="cls-1" d="M508.64,348.72a31.76,31.76,0,0,1-19-40.72L350.92,688.84l59.69,21.74,90.07-247.21,48.68-133.62A31.77,31.77,0,0,1,508.64,348.72Z" transform="translate(-218.16 -5.32)"/><circle class="cls-1" cx="519.51" cy="318.88" r="31.76" transform="translate(-76.26 792.09) rotate(-83.26)"/><path class="cls-1" d="M492.12,223.7A135,135,0,0,1,471.67,94.25L235.43,742.69l59.69,21.74Z" transform="translate(-218.16 -5.32)"/><path class="cls-1" d="M771.08,325.33a31.76,31.76,0,1,1-59.69-21.75l-197,540.74,59.69,21.74Z" transform="translate(-218.16 -5.32)"/><path class="cls-1" d="M492.12,223.7,531.36,116,570.6,8.29A135.18,135.18,0,0,0,492.12,223.7Z" transform="translate(-218.16 -5.32)"/><path class="cls-1" d="M623.2,73.2A71.66,71.66,0,0,1,666,165l59.69,21.75A135.18,135.18,0,0,0,570.6,8.29L531.36,116A71.65,71.65,0,0,1,623.2,73.2Z" transform="translate(-218.16 -5.32)"/><circle class="cls-1" cx="741.23" cy="314.46" r="31.76" transform="translate(123.85 1008.38) rotate(-83.26)"/><path class="cls-1" d="M508.06,861.69A116.69,116.69,0,1,1,288.79,781.8L229.1,760.06A180.21,180.21,0,1,0,567.75,883.43Z" transform="translate(-218.16 -5.32)"/><rect class="cls-1" x="509.3" y="854.63" width="63.53" height="18.49" transform="translate(110.24 -138.34) rotate(20.02)"/><rect class="cls-1" x="230.35" y="753" width="63.53" height="18.49" transform="translate(58.6 -48.99) rotate(20.02)"/><path class="cls-1" d="M666,165,575.92,412.25,537,519.11l-46.9,128.75c.89.68,1.77,1.38,2.64,2.09l.34.28c.86.71,1.7,1.43,2.53,2.17l.12.11c.82.73,1.62,1.48,2.41,2.24l.18.17c.79.76,1.56,1.54,2.32,2.33l.29.31q2.29,2.41,4.39,5l.24.3c.68.84,1.35,1.69,2,2.56l.22.3c1.32,1.76,2.56,3.56,3.74,5.41.09.13.17.26.25.39q.87,1.37,1.68,2.76l.13.22q.79,1.37,1.53,2.76l.13.24c.5.94,1,1.9,1.45,2.86.07.15.14.3.22.45.46,1,.92,2,1.35,3v0c.43,1,.83,2,1.22,3,.06.14.12.28.17.42.38,1,.75,2,1.09,3,.06.15.11.3.16.46q.52,1.51,1,3.06h0c.31,1,.59,2.06.87,3.1.05.18.09.36.14.54.26,1,.51,2,.73,3.06l.09.41c.21,1,.41,2,.59,3l.06.35c.18,1,.35,2.07.49,3.11l.09.6c.14,1.05.26,2.1.37,3.16,0,.08,0,.16,0,.23.09,1,.17,2,.23,3,0,.18,0,.36,0,.54.06,1,.09,2.09.12,3.13v.61q0,1.59,0,3.18v.06c0,1.08-.08,2.15-.14,3.23,0,.21,0,.43,0,.64-.07,1-.16,2.1-.26,3.15l-.06.53c-.11,1-.23,2-.37,3l-.06.4c-.15,1.06-.33,2.11-.52,3.17,0,.22-.09.45-.13.67q-.3,1.59-.66,3.18c0,.12-.06.24-.08.35-.24,1-.49,2-.75,3l-.15.57q-.43,1.56-.93,3.12l-.21.64c-.34,1.08-.7,2.15-1.09,3.21L725.68,186.79Z" transform="translate(-218.16 -5.32)"/><path class="cls-1" d="M521.59,746.69q.49-1.56.93-3.12l.15-.57c.26-1,.51-2,.75-3,0-.11.05-.23.08-.35q.36-1.59.66-3.18c0-.22.09-.45.13-.67.19-1.06.37-2.11.52-3.17l.06-.4c.14-1,.26-2,.37-3l.06-.53c.1-1,.19-2.1.26-3.15,0-.21,0-.43,0-.64.06-1.08.11-2.15.14-3.23v-.06q0-1.59,0-3.18v-.61c0-1-.06-2.09-.12-3.13,0-.18,0-.36,0-.54-.06-1-.14-2-.23-3,0-.07,0-.15,0-.23-.11-1.06-.23-2.11-.37-3.16l-.09-.6c-.14-1-.31-2.08-.49-3.11l-.06-.35c-.18-1-.38-2-.59-3l-.09-.41c-.22-1-.47-2-.73-3.06,0-.18-.09-.36-.14-.54-.28-1-.56-2.07-.87-3.1h0q-.46-1.54-1-3.06c0-.16-.1-.31-.16-.46-.34-1-.71-2-1.09-3,0-.14-.11-.28-.17-.42-.39-1-.79-2-1.22-3v0c-.43-1-.89-2-1.35-3-.08-.15-.15-.3-.22-.45-.47-1-.95-1.92-1.45-2.86l-.13-.24q-.74-1.4-1.53-2.76l-.13-.22q-.81-1.39-1.68-2.76c-.08-.13-.16-.26-.25-.39-1.18-1.85-2.42-3.65-3.74-5.41l-.22-.3c-.65-.87-1.32-1.72-2-2.56l-.24-.3q-2.1-2.55-4.39-5l-.29-.31c-.76-.79-1.53-1.57-2.32-2.33l-.18-.17c-.79-.76-1.59-1.51-2.41-2.24l-.12-.11c-.83-.74-1.67-1.46-2.53-2.17l-.34-.28c-.87-.71-1.75-1.41-2.64-2.09L460.6,728.8a26.6,26.6,0,0,1-50-18.22l29.49-80.93a90.14,90.14,0,1,0,80.19,120.89c.39-1.06.75-2.13,1.09-3.21Z" transform="translate(-218.16 -5.32)"/></svg>